<?xml version="1.0" encoding="UTF-8" standalone="no"?>
<!DOCTYPE svg PUBLIC "-//W3C//DTD SVG 1.1//EN"
 "http://www.w3.org/Graphics/SVG/1.1/DTD/svg11.dtd">
<!-- Generated by graphviz version 2.47.1 (0)
 -->
<!-- Title: G Pages: 1 -->
<svg width="479pt" height="72pt"
 viewBox="0.00 0.00 479.44 71.66" xmlns="http://www.w3.org/2000/svg" xmlns:xlink="http://www.w3.org/1999/xlink">
<g id="graph0" class="graph" transform="scale(1 1) rotate(0) translate(4 67.66)">
<title>G</title>
<polygon fill="white" stroke="transparent" points="-4,4 -4,-67.66 475.44,-67.66 475.44,4 -4,4"/>
<!-- fetch_queue -->
<g id="node1" class="node">
<title>fetch_queue</title>
<ellipse fill="none" stroke="black" cx="66.94" cy="-18" rx="66.89" ry="18"/>
<text text-anchor="middle" x="66.94" y="-14.3" font-family="Times,serif" font-size="14.00">fetch_queue</text>
</g>
<!-- fetch -->
<g id="node3" class="node">
<title>fetch</title>
<polygon fill="none" stroke="black" points="205.94,-36 151.94,-36 151.94,0 205.94,0 205.94,-36"/>
<text text-anchor="middle" x="178.94" y="-14.3" font-family="Times,serif" font-size="14.00">fetch</text>
</g>
<!-- fetch_queue&#45;&gt;fetch -->
<g id="edge1" class="edge">
<title>fetch_queue&#45;&gt;fetch</title>
<path fill="none" stroke="black" d="M134.32,-18C136.77,-18 139.22,-18 141.67,-18"/>
<polygon fill="black" stroke="black" points="141.75,-21.5 151.75,-18 141.75,-14.5 141.75,-21.5"/>
</g>
<!-- process_queue -->
<g id="node2" class="node">
<title>process_queue</title>
<ellipse fill="none" stroke="black" cx="302.94" cy="-18" rx="79.09" ry="18"/>
<text text-anchor="middle" x="302.94" y="-14.3" font-family="Times,serif" font-size="14.00">process_queue</text>
</g>
<!-- process -->
<g id="node4" class="node">
<title>process</title>
<polygon fill="none" stroke="black" points="471.44,-36 400.44,-36 400.44,0 471.44,0 471.44,-36"/>
<text text-anchor="middle" x="435.94" y="-14.3" font-family="Times,serif" font-size="14.00">process</text>
</g>
<!-- process_queue&#45;&gt;process -->
<g id="edge3" class="edge">
<title>process_queue&#45;&gt;process</title>
<path fill="none" stroke="black" d="M382.43,-18C385.05,-18 387.68,-18 390.3,-18"/>
<polygon fill="black" stroke="black" points="390.41,-21.5 400.41,-18 390.41,-14.5 390.41,-21.5"/>
</g>
<!-- fetch&#45;&gt;process_queue -->
<g id="edge2" class="edge">
<title>fetch&#45;&gt;process_queue</title>
<path fill="none" stroke="black" d="M206.07,-18C208.52,-18 210.96,-18 213.41,-18"/>
<polygon fill="black" stroke="black" points="213.48,-21.5 223.48,-18 213.48,-14.5 213.48,-21.5"/>
</g>
<!-- process&#45;&gt;fetch_queue -->
<g id="edge4" class="edge">
<title>process&#45;&gt;fetch_queue</title>
<path fill="none" stroke="black" d="M415.12,-36.08C405.66,-43.13 393.91,-50.38 381.94,-54 333.03,-68.81 202.03,-64.17 151.94,-54 136.5,-50.87 120.39,-44.83 106.39,-38.58"/>
<polygon fill="black" stroke="black" points="107.62,-35.29 97.07,-34.26 104.67,-41.64 107.62,-35.29"/>
</g>
</g>
</svg>
